<svg width="32" height="32" viewBox="0 0 32 32" fill="none" xmlns="http://www.w3.org/2000/svg">
<g clip-path="url(#clip0_233_2)">
<path d="M7 28V22.873H8.70898V17.7461H10.418V12.6191H12.127V7.49219H13.8359V4.07422H17.2539V7.49219H15.5449V12.6191H13.8359V16.0371H15.5039V14.3281H18.9629V16.0371H20.6719V19.4551H18.9629V22.873H17.2539V26.291H18.9629V24.582H20.6719V21.1641H22.3809V19.4551H24.0898V21.2051H22.3809V24.623H20.6719V26.332H18.9629V28H15.5449V26.291H13.8359V22.873H15.5449V19.4551H17.2539V16.0371H15.5449V17.7461H13.8359V19.4551H12.127V22.873H10.418V28H7Z" fill="white"/>
</g>
<defs>
<clipPath id="clip0_233_2">
<rect width="32" height="32" fill="white"/>
</clipPath>
</defs>
</svg>
